<svg width="31" height="31" viewBox="0 0 31 31" fill="none" xmlns="http://www.w3.org/2000/svg">
<path d="M3.01025 15.1532C3.01025 13.4223 3.33871 11.7957 3.99561 10.2733C4.65252 8.75096 5.54404 7.42672 6.67016 6.30059C7.79629 5.17447 9.12052 4.28295 10.6429 3.62605C12.1652 2.96914 13.7919 2.64069 15.5228 2.64069C18.1712 2.64069 20.533 3.37058 22.608 4.83037C24.6829 6.29017 26.1897 8.17747 27.1281 10.4923C27.2741 10.8468 27.2793 11.2013 27.1437 11.5558C27.0082 11.9104 26.7632 12.1502 26.4086 12.2753C26.075 12.3796 25.7569 12.3483 25.4546 12.1815C25.1522 12.0146 24.9384 11.7644 24.8133 11.4307C24.3128 10.1795 23.5933 9.0742 22.6549 8.1149C21.7164 7.15561 20.5903 6.41529 19.2765 5.89394V6.39444C19.2765 7.08262 19.0315 7.67175 18.5414 8.16183C18.0513 8.6519 17.4622 8.89694 16.774 8.89694H14.2715V11.3994C14.2715 11.754 14.1516 12.0511 13.9118 12.291C13.6719 12.5308 13.3748 12.6507 13.0203 12.6507H10.5178V15.1532H11.769C12.1235 15.1532 12.4207 15.2731 12.6605 15.5129C12.9003 15.7527 13.0203 16.0499 13.0203 16.4044V18.9069H11.769L5.763 12.9009C5.70044 13.2763 5.64309 13.6517 5.59096 14.0271C5.53882 14.4024 5.51275 14.7778 5.51275 15.1532C5.51275 17.6974 6.35213 19.9184 8.0309 21.8161C9.70966 23.7138 11.8211 24.8087 14.3653 25.1006C14.699 25.1423 14.9753 25.2831 15.1943 25.5229C15.4133 25.7627 15.5228 26.0599 15.5228 26.4144C15.5228 26.769 15.4028 27.0661 15.163 27.306C14.9232 27.5458 14.6365 27.6448 14.3028 27.6031C11.1121 27.2903 8.43234 25.9556 6.2635 23.5991C4.09467 21.2426 3.01025 18.4273 3.01025 15.1532ZM26.0333 26.1642L22.9051 23.0361C22.4672 23.2863 21.998 23.4949 21.4975 23.6617C20.997 23.8285 20.4652 23.9119 19.9021 23.9119C18.3381 23.9119 17.0086 23.3645 15.9138 22.2697C14.8189 21.1748 14.2715 19.8454 14.2715 18.2813C14.2715 16.7172 14.8189 15.3878 15.9138 14.293C17.0086 13.1981 18.3381 12.6507 19.9021 12.6507C21.4662 12.6507 22.7956 13.1981 23.8905 14.293C24.9853 15.3878 25.5328 16.7172 25.5328 18.2813C25.5328 18.8444 25.4493 19.3762 25.2825 19.8767C25.1157 20.3772 24.9071 20.8464 24.6569 21.2843L27.785 24.4124C28.0144 24.6418 28.1291 24.9338 28.1291 25.2883C28.1291 25.6428 28.0144 25.9348 27.785 26.1642C27.5556 26.3936 27.2637 26.5083 26.9091 26.5083C26.5546 26.5083 26.2626 26.3936 26.0333 26.1642ZM19.9021 21.4094C20.778 21.4094 21.5183 21.1071 22.1231 20.5023C22.7279 19.8975 23.0303 19.1572 23.0303 18.2813C23.0303 17.4054 22.7279 16.6651 22.1231 16.0603C21.5183 15.4556 20.778 15.1532 19.9021 15.1532C19.0263 15.1532 18.2859 15.4556 17.6812 16.0603C17.0764 16.6651 16.774 17.4054 16.774 18.2813C16.774 19.1572 17.0764 19.8975 17.6812 20.5023C18.2859 21.1071 19.0263 21.4094 19.9021 21.4094Z" fill="white"/>
</svg>
