<svg width="29" height="29" viewBox="0 0 29 29" fill="none" xmlns="http://www.w3.org/2000/svg">
<path d="M20.2907 11.8552C20.7379 11.4081 20.7379 10.6831 20.2907 10.2359C19.8435 9.78875 19.1185 9.78875 18.6714 10.2359L12.6108 16.2965L9.98534 13.671C9.53818 13.2239 8.81318 13.2239 8.36601 13.671C7.91885 14.1182 7.91885 14.8432 8.36601 15.2904L11.8011 18.7255C12.2483 19.1726 12.9733 19.1726 13.4205 18.7255L20.2907 11.8552Z" fill="white"/>
<path fill-rule="evenodd" clip-rule="evenodd" d="M28.0688 14.4807C28.0688 22.0693 21.917 28.2212 14.3283 28.2212C6.7397 28.2212 0.587891 22.0693 0.587891 14.4807C0.587891 6.89205 6.7397 0.740234 14.3283 0.740234C21.917 0.740234 28.0688 6.89205 28.0688 14.4807ZM25.7787 14.4807C25.7787 20.8046 20.6522 25.9311 14.3283 25.9311C8.00448 25.9311 2.87797 20.8046 2.87797 14.4807C2.87797 8.15682 8.00448 3.03031 14.3283 3.03031C20.6522 3.03031 25.7787 8.15682 25.7787 14.4807Z" fill="white"/>
</svg>
