<svg width="27" height="17" viewBox="0 0 27 17" fill="none" xmlns="http://www.w3.org/2000/svg">
<path fill-rule="evenodd" clip-rule="evenodd" d="M5.78554 0.611328H21.3592C21.5111 0.611328 21.657 0.611328 21.7941 0.611754C22.7191 0.614628 23.5702 0.617552 24.2928 0.985733C24.9391 1.31507 25.4646 1.84058 25.794 2.48693C26.1622 3.20953 26.1651 4.06065 26.168 4.98563C26.1684 5.12229 26.1684 5.26686 26.1684 5.41818V11.8327C26.1684 11.882 26.1684 11.9316 26.1685 11.9809C26.1686 12.0793 26.1687 12.1764 26.1684 12.268C26.1655 13.1936 26.162 14.044 25.794 14.7663C25.4646 15.4126 24.9391 15.9381 24.2928 16.2675C23.5702 16.6356 22.7191 16.6386 21.7941 16.6414C21.6571 16.6419 21.5121 16.6419 21.3604 16.6419H5.78554C5.63379 16.6419 5.48884 16.6419 5.35184 16.6414C4.42686 16.6386 3.57574 16.6356 2.85314 16.2675C2.20679 15.9381 1.68128 15.4126 1.35194 14.7663C0.983763 14.0437 0.980838 13.1925 0.977965 12.2676C0.977539 12.1306 0.977539 11.9856 0.977539 11.8339V5.41933C0.977539 5.26758 0.977539 5.12263 0.977965 4.98563C0.980838 4.06065 0.983763 3.20953 1.35194 2.48693C1.68128 1.84057 2.20679 1.31507 2.85314 0.985733C3.57574 0.617552 4.42686 0.614627 5.35184 0.611754C5.48884 0.611328 5.63379 0.611328 5.78554 0.611328ZM7.22765 2.9014C7.25894 3.08762 7.27525 3.27889 7.27525 3.47392C7.27525 5.37109 5.7373 6.90904 3.84013 6.90904C3.6451 6.90904 3.45383 6.89273 3.26762 6.86144V10.3918C3.45383 10.3605 3.6451 10.3442 3.84013 10.3442C5.7373 10.3442 7.27525 11.8821 7.27525 13.7793C7.27525 13.9743 7.25894 14.1656 7.22765 14.3518H19.9183C19.887 14.1656 19.8707 13.9743 19.8707 13.7793C19.8707 11.8821 21.4086 10.3442 23.3058 10.3442C23.5008 10.3442 23.6921 10.3605 23.8783 10.3918V6.86144C23.6921 6.89273 23.5008 6.90904 23.3058 6.90904C21.4086 6.90904 19.8707 5.37109 19.8707 3.47392C19.8707 3.27889 19.887 3.08762 19.9183 2.9014H7.22765ZM22.3096 2.90838C22.2145 3.07534 22.1607 3.26809 22.1607 3.47392C22.1607 4.10631 22.6734 4.61896 23.3058 4.61896C23.5116 4.61896 23.7044 4.56517 23.8713 4.47006C23.8553 3.82562 23.8117 3.64091 23.7535 3.52661C23.6437 3.31115 23.4686 3.13598 23.2531 3.02621C23.1388 2.96797 22.9541 2.92443 22.3096 2.90838ZM23.8717 12.7833C23.7047 12.6881 23.5118 12.6342 23.3058 12.6342C22.6734 12.6342 22.1607 13.1469 22.1607 13.7793C22.1607 13.9851 22.2145 14.1778 22.3096 14.3448C22.9541 14.3288 23.1388 14.2852 23.2531 14.227C23.4686 14.1172 23.6437 13.942 23.7535 13.7266C23.8118 13.6122 23.8556 13.4271 23.8717 12.7833ZM4.83627 14.3448C4.93139 14.1778 4.98517 13.9851 4.98517 13.7793C4.98517 13.1469 4.47252 12.6342 3.84013 12.6342C3.6343 12.6342 3.44155 12.688 3.27459 12.7831C3.29064 13.4276 3.33418 13.6123 3.39242 13.7266C3.5022 13.942 3.67736 14.1172 3.89282 14.227C4.00712 14.2852 4.19183 14.3288 4.83627 14.3448ZM3.27459 4.47006C3.44155 4.56517 3.6343 4.61896 3.84013 4.61896C4.47252 4.61896 4.98517 4.10631 4.98517 3.47392C4.98517 3.26809 4.93139 3.07534 4.83627 2.90838C4.19183 2.92443 4.00712 2.96797 3.89282 3.02621C3.67736 3.13599 3.5022 3.31115 3.39242 3.52661C3.33418 3.64091 3.29064 3.82562 3.27459 4.47006ZM13.573 7.48156C12.9406 7.48156 12.4279 7.99421 12.4279 8.6266C12.4279 9.25898 12.9406 9.77163 13.573 9.77163C14.2053 9.77163 14.718 9.25898 14.718 8.6266C14.718 7.99421 14.2053 7.48156 13.573 7.48156ZM10.1378 8.6266C10.1378 6.72943 11.6758 5.19148 13.573 5.19148C15.4701 5.19148 17.0081 6.72943 17.0081 8.6266C17.0081 10.5238 15.4701 12.0617 13.573 12.0617C11.6758 12.0617 10.1378 10.5238 10.1378 8.6266Z" fill="white"/>
</svg>
