<svg width="26" height="21" viewBox="0 0 26 21" fill="none" xmlns="http://www.w3.org/2000/svg">
<path fill-rule="evenodd" clip-rule="evenodd" d="M4.98671 0.32129H12.6322C13.2358 0.32127 13.7566 0.321252 14.1855 0.356294C14.6381 0.39328 15.0884 0.47494 15.5216 0.695697C16.168 1.02503 16.6935 1.55054 17.0228 2.1969C17.2436 2.63016 17.3253 3.08041 17.3623 3.53309C17.3937 3.91757 17.3969 4.37583 17.3972 4.90144H19.6873C20.0477 4.90144 20.3871 5.07113 20.6034 5.35946L24.0385 9.93961C24.1871 10.1378 24.2675 10.3789 24.2675 10.6266V16.3518C24.8999 16.3518 25.4125 16.8645 25.4125 17.4969C25.4125 18.1293 24.8999 18.6419 24.2675 18.6419H21.7819C21.3104 19.9761 20.038 20.932 18.5423 20.932C17.0466 20.932 15.7742 19.9761 15.3026 18.6419H9.18652C8.71495 19.9761 7.44254 20.932 5.94687 20.932C4.39676 20.932 3.08645 19.9052 2.65894 18.4947C1.24843 18.0672 0.221682 16.7569 0.221682 15.2068L0.221681 5.08632C0.22166 4.48271 0.221642 3.96199 0.256685 3.53309C0.293671 3.08041 0.37533 2.63016 0.596087 2.1969C0.925423 1.55054 1.45093 1.02503 2.09729 0.695696C2.53055 0.47494 2.9808 0.39328 3.43348 0.356294C3.86238 0.321252 4.3831 0.32127 4.98671 0.32129ZM2.84654 16.0159C3.39965 14.8601 4.58003 14.0618 5.94687 14.0618C7.44254 14.0618 8.71495 15.0176 9.18652 16.3518H15.1072V5.13045C15.1072 4.47028 15.1063 4.04401 15.0798 3.71958C15.0544 3.40851 15.0112 3.29318 14.9824 3.23657C14.8726 3.02112 14.6974 2.84595 14.482 2.73617C14.4254 2.70732 14.31 2.66418 13.999 2.63877C13.6745 2.61226 13.2483 2.61137 12.5881 2.61137H5.03084C4.37067 2.61137 3.9444 2.61226 3.61997 2.63877C3.3089 2.66418 3.19357 2.70732 3.13696 2.73617C2.92151 2.84595 2.74634 3.02112 2.63656 3.23657C2.60771 3.29318 2.56457 3.40851 2.53916 3.71958C2.51265 4.04401 2.51176 4.47028 2.51176 5.13045V15.2068C2.51176 15.5227 2.63967 15.8087 2.84654 16.0159ZM17.3973 11.7717V14.2572C17.7554 14.1306 18.1408 14.0618 18.5423 14.0618C20.038 14.0618 21.3104 15.0176 21.7819 16.3518H21.9774V11.7717H17.3973ZM20.8324 9.4816H17.3973V7.19152H19.1148L20.8324 9.4816ZM5.94687 16.3518C5.31449 16.3518 4.80183 16.8645 4.80183 17.4969C4.80183 18.1293 5.31449 18.6419 5.94687 18.6419C6.57926 18.6419 7.09191 18.1293 7.09191 17.4969C7.09191 16.8645 6.57926 16.3518 5.94687 16.3518ZM18.5423 16.3518C17.9099 16.3518 17.3973 16.8645 17.3973 17.4969C17.3973 18.1293 17.9099 18.6419 18.5423 18.6419C19.1747 18.6419 19.6873 18.1293 19.6873 17.4969C19.6873 16.8645 19.1747 16.3518 18.5423 16.3518Z" fill="white"/>
</svg>
